<?xml version="1.0" encoding="UTF-8" standalone="no"?>
<!-- Created with Inkscape (http://www.inkscape.org/) -->

<svg
   xmlns:dc="http://purl.org/dc/elements/1.1/"
   xmlns:cc="http://creativecommons.org/ns#"
   xmlns:rdf="http://www.w3.org/1999/02/22-rdf-syntax-ns#"
   xmlns:svg="http://www.w3.org/2000/svg"
   xmlns="http://www.w3.org/2000/svg"
   xmlns:sodipodi="http://sodipodi.sourceforge.net/DTD/sodipodi-0.dtd"
   xmlns:inkscape="http://www.inkscape.org/namespaces/inkscape"
   width="393.75488"
   height="127.61039"
   id="svg2"
   version="1.1"
   inkscape:version="0.48.4 r9939"
   sodipodi:docname="logo-lab-white.svg">
  <defs
     id="defs4" />
  <sodipodi:namedview
     id="base"
     pagecolor="#ffffff"
     bordercolor="#666666"
     borderopacity="1.0"
     inkscape:pageopacity="0.0"
     inkscape:pageshadow="2"
     inkscape:zoom="1.4"
     inkscape:cx="254.89969"
     inkscape:cy="39.637698"
     inkscape:document-units="px"
     inkscape:current-layer="layer1"
     showgrid="false"
     fit-margin-top="0"
     fit-margin-left="0"
     fit-margin-right="0"
     fit-margin-bottom="0"
     inkscape:window-width="1366"
     inkscape:window-height="709"
     inkscape:window-x="0"
     inkscape:window-y="25"
     inkscape:window-maximized="1" />
  <metadata
     id="metadata7">
    <rdf:RDF>
      <cc:Work
         rdf:about="">
        <dc:format>image/svg+xml</dc:format>
        <dc:type
           rdf:resource="http://purl.org/dc/dcmitype/StillImage" />
        <dc:title />
      </cc:Work>
    </rdf:RDF>
  </metadata>
  <g
     inkscape:label="Camada 1"
     inkscape:groupmode="layer"
     id="layer1"
     transform="translate(-18.961035,-170.46608)">
    <g
       transform="scale(0.92919748,1.0761975)"
       style="font-size:146.08448791999998662px;font-style:normal;font-variant:normal;font-weight:normal;font-stretch:normal;line-height:125%;letter-spacing:0px;word-spacing:0px;fill:#ffffff;fill-opacity:1;stroke:none;font-family:Digital-7;-inkscape-font-specification:Digital-7"
       id="text3757">
      <path
         d="m 41.126246,170.37928 5.991747,7.48968 -5.991747,34.95186 -4.636471,3.56652 -4.351149,-5.06446 6.491059,-38.94635 2.496561,-1.99725 m -4.993122,48.86127 3.994498,4.99312 -5.207113,34.38121 -8.274317,6.56239 -1.997249,-2.99587 6.491059,-39.44567 4.993122,-3.49518 m 0.213991,40.37296 39.017683,0.0713 5.635095,7.48968 -3.994498,2.49656 -46.364705,0 -2.496562,-2.99587 8.202987,-7.0617"
         style="font-family:alarm clock;-inkscape-font-specification:alarm clock;fill:#ffffff"
         id="path3025" />
      <path
         d="m 132.00107,167.38341 46.86401,0 2.92455,2.92454 -8.34565,6.56239 -39.37433,0 -5.56377,-7.48968 3.49519,-1.99725 m -4.99313,2.99587 5.99175,7.48968 -5.99175,34.95186 -4.63647,3.56652 -4.35115,-5.06446 6.49106,-38.94635 2.49656,-1.99725 m 55.85164,0.99863 2.49656,2.99587 -5.99174,37.94773 -5.49244,4.49381 -3.9945,-4.49381 4.85047,-34.59521 8.13165,-6.34839 m -14.26606,41.94222 4.27982,4.7078 -5.6351,5.20712 -19.68716,0 1.35527,-9.91492 19.68717,0 m -40.58695,9.91492 -4.99312,-5.42111 5.99174,-4.49381 18.75988,0 -1.42661,9.91492 -18.33189,0 m -5.99175,-3.9945 3.9945,4.99312 -5.20711,34.38121 -8.27432,6.56239 -1.99725,-2.99587 6.49106,-39.44567 4.99312,-3.49518 m 51.35783,0.49931 4.49381,4.99312 -6.49106,39.08902 -2.99587,1.85458 -5.84909,-7.0617 5.92042,-34.45254 4.92179,-4.42248"
         style="font-family:alarm clock;-inkscape-font-specification:alarm clock;fill:#ffffff"
         id="path3027" />
      <path
         d="m 212.60433,170.37928 5.99175,7.48968 -5.99175,34.95186 -4.63647,3.56652 -4.35115,-5.06446 6.49106,-38.94635 2.49656,-1.99725 m 41.58558,42.94085 4.27982,4.7078 -5.6351,5.20712 -19.68716,0 1.35527,-9.91492 19.68717,0 m -40.58695,9.91492 -4.99312,-5.42111 5.99174,-4.49381 18.75988,0 -1.42661,9.91492 -18.33189,0 m -5.99175,-3.9945 3.9945,4.99312 -5.20711,34.38121 -8.27432,6.56239 -1.99725,-2.99587 6.49106,-39.44567 4.99312,-3.49518 m 51.35783,0.49931 4.49381,4.99312 -6.49106,39.08902 -2.99587,1.85458 -5.84909,-7.0617 5.92042,-34.45254 4.92179,-4.42248 m -51.14384,39.87365 39.01769,0.0713 5.63509,7.48968 -3.9945,2.49656 -46.3647,0 -2.49656,-2.99587 8.20298,-7.0617"
         style="font-family:alarm clock;-inkscape-font-specification:alarm clock;fill:#ffffff"
         id="path3029" />
      <path
         d="m 303.47914,167.38341 46.86402,0 2.92454,2.92454 -8.34565,6.56239 -39.37433,0 -5.56377,-7.48968 3.49519,-1.99725 m -4.99312,2.99587 5.99174,7.48968 -5.99174,34.95186 -4.63647,3.56652 -4.35115,-5.06446 6.49106,-38.94635 2.49656,-1.99725 m 55.85164,0.99863 2.49656,2.99587 -5.99175,37.94773 -5.49243,4.49381 -3.9945,-4.49381 4.85046,-34.59521 8.13166,-6.34839 m -53.85439,41.94222 39.58832,0 4.27982,4.7078 -5.63509,5.20712 -39.23168,0 -4.99312,-5.42111 5.99175,-4.49381 m -6.99037,5.92042 3.99449,4.99312 -5.20711,34.38121 -8.27432,6.56239 -1.99725,-2.99587 6.49106,-39.44567 4.99313,-3.49518 m 51.35782,0.49931 4.49381,4.99312 -6.49106,39.08902 -2.99587,1.85458 -5.84908,-7.0617 5.92041,-34.45254 4.92179,-4.42248 m -51.14383,39.87365 39.01768,0.0713 5.63509,7.48968 -3.99449,2.49656 -46.36471,0 -2.49656,-2.99587 8.20299,-7.0617"
         style="font-family:alarm clock;-inkscape-font-specification:alarm clock;fill:#ffffff"
         id="path3031" />
      <path
         d="m 389.36085,167.38341 46.86402,0 2.92454,2.92454 -8.34564,6.56239 -39.37434,0 -5.56376,-7.48968 3.49518,-1.99725 m -4.99312,2.99587 5.99175,7.48968 -5.99175,34.95186 -4.63647,3.56652 -4.35115,-5.06446 6.49106,-38.94635 2.49656,-1.99725 m 1.99725,42.94085 39.58833,0 4.27982,4.7078 -5.6351,5.20712 -39.23167,0 -4.99313,-5.42111 5.99175,-4.49381 m 44.36746,6.41973 4.49381,4.99312 -6.49106,39.08902 -2.99587,1.85458 -5.84909,-7.0617 5.92042,-34.45254 4.92179,-4.42248 m -51.14384,39.87365 39.01768,0.0713 5.6351,7.48968 -3.9945,2.49656 -46.3647,0 -2.49657,-2.99587 8.20299,-7.0617"
         style="font-family:alarm clock;-inkscape-font-specification:alarm clock;fill:#ffffff"
         id="path3033" />
    </g>
    <text
       xml:space="preserve"
       style="font-size:125.98415375px;font-style:normal;font-variant:normal;font-weight:normal;font-stretch:normal;line-height:125%;letter-spacing:0px;word-spacing:0px;fill:#000000;fill-opacity:1;stroke:none;font-family:Digital-7;-inkscape-font-specification:Digital-7"
       x="78.922813"
       y="255.68573"
       id="text2985"
       sodipodi:linespacing="125%"
       transform="scale(0.94123944,1.0624289)"><tspan
         sodipodi:role="line"
         id="tspan2987"
         x="78.922813"
         y="255.68573"
         style="fill:#ffffff" /></text>
  </g>
</svg>
